<svg width="24" height="24" viewBox="0 0 24 24" fill="none" xmlns="http://www.w3.org/2000/svg">
<path d="M11.103 20.2505L11.1 20.2835C11.1 20.4969 11.1759 20.7034 11.3141 20.8661C11.4523 21.0287 11.6439 21.137 11.8545 21.1715L12 21.1835C12.121 21.1836 12.2408 21.1592 12.3522 21.112C12.4636 21.0647 12.5643 20.9954 12.6484 20.9083C12.7324 20.8212 12.798 20.7181 12.8412 20.605C12.8844 20.492 12.9044 20.3714 12.9 20.2505H14.25C14.2497 20.8283 14.0271 21.3839 13.6284 21.8021C13.2296 22.2203 12.6853 22.469 12.1081 22.4968C11.531 22.5245 10.9653 22.3292 10.5282 21.9512C10.0911 21.5732 9.81626 21.0416 9.7605 20.4665L9.75 20.2505H11.103ZM12.0131 1.50049C12.4367 1.50049 12.78 1.84383 12.78 2.26736V3.04099C14.6241 3.23382 16.3313 4.10287 17.5723 5.48042C18.8133 6.85798 19.5 8.64638 19.5 10.5005V17.999L20.2507 17.9997C20.6647 18.0002 21 18.3358 21 18.7497C21 19.1642 20.6638 19.5002 20.2492 19.4997L19.5 19.499V19.5005H4.5V19.499L3.75075 19.4997C3.33624 19.5002 3 19.1642 3 18.7497C3 18.3358 3.33533 18.0002 3.74925 17.9997L4.5 17.999V10.5005C4.49986 8.6419 5.18984 6.84946 6.43615 5.47067C7.68247 4.09188 9.39634 3.22496 11.2455 3.03799L11.2463 2.26661C11.2467 1.84337 11.5899 1.50049 12.0131 1.50049ZM12 4.50049C10.4087 4.50049 8.88258 5.13263 7.75736 6.25785C6.63214 7.38307 6 8.90919 6 10.5005V17.999H18V10.5005C18 8.90919 17.3679 7.38307 16.2426 6.25785C15.1174 5.13263 13.5913 4.50049 12 4.50049Z" fill="white" fill-opacity="0.9"/>
</svg>
