<svg viewBox="0 0 200 252" fill="none" xmlns="http://www.w3.org/2000/svg">
<g clip-path="url(#clip0_33431_9498)">
<path d="M-0.0126953 31.8125H127.334C127.334 31.8125 127.03 48.2189 122.262 57.4409H52.3511V103.186H115.948C115.948 103.186 114.757 116.979 109.66 130.12C106.845 130.251 52.3765 130.12 52.3765 130.12V187.229C52.3765 193.839 50.7789 200.422 47.457 206.091C42.6137 214.347 31.3549 224.274 17.2559 224.431C1.4327 224.431 0.0126625 224.431 0.0126625 224.431V207.188C0.0126625 207.188 10.8911 208.312 15.633 199.534C16.7995 197.392 17.2559 194.884 17.2559 192.428V68.3611C17.2559 58.9301 9.5979 51.2494 0.469102 51.8764C0.316956 51.8764 0.164809 51.9025 0.0126625 51.9025V31.8125H-0.0126953Z" fill="white"/>
<path d="M139.788 31.8125C139.788 31.8125 166.718 32.3611 177.469 57.4409C179.447 61.6732 192.861 96.7327 159.389 112.199C162.863 113.531 177.976 117.737 187.181 134.666C195.727 150.393 196.285 169.725 188.627 185.949C185.685 192.219 181.172 199.037 174.249 205.699C171.485 208.39 162.204 220.199 127.362 220.199C92.5208 220.199 55.042 220.199 55.042 220.199C55.042 220.199 60.0628 214.112 65.5148 195.119H128.022C134.615 195.119 141.182 193.786 147.116 190.808C155.332 186.68 164.106 178.791 163.852 163.9C163.852 155.226 163.852 142.712 151.148 134.718C146.229 131.609 140.472 130.225 134.716 130.225H121.53C121.53 130.225 125.993 118.756 127.261 103.081H132.865C143.16 103.081 152.238 95.6354 154.089 85.1855C154.318 83.8531 154.495 82.4424 154.546 80.901C154.546 74.9968 157.183 58.9039 135.096 57.4148C135.096 57.4409 139.281 46.8081 139.788 31.8125Z" fill="white" fill-opacity="0.7"/>
<path d="M127.335 0H105.629V31.7939H127.335V0Z" fill="white" fill-opacity="0.7"/>
<path d="M92.4973 0H70.791V31.7939H92.4973V0Z" fill="white" fill-opacity="0.7"/>
<path d="M127.335 220.188H105.629V251.981H127.335V220.188Z" fill="white" fill-opacity="0.7"/>
<path d="M92.4973 220.188H70.791V251.981H92.4973V220.188Z" fill="white" fill-opacity="0.7"/>
</g>
<defs>
<clipPath id="clip0_33431_9498">
<rect width="200" height="252" fill="white"/>
</clipPath>
</defs>
</svg>
