<svg width="12" height="12" viewBox="0 0 12 12" fill="none" xmlns="http://www.w3.org/2000/svg">
<path d="M6 0C6.17681 0 6.34638 0.0702379 6.4714 0.195262C6.59643 0.320286 6.66667 0.489856 6.66667 0.666667V5.33333H11.3333C11.5101 5.33333 11.6797 5.40357 11.8047 5.5286C11.9298 5.65362 12 5.82319 12 6C12 6.17681 11.9298 6.34638 11.8047 6.4714C11.6797 6.59643 11.5101 6.66667 11.3333 6.66667H6.66667V11.3333C6.66667 11.5101 6.59643 11.6797 6.4714 11.8047C6.34638 11.9298 6.17681 12 6 12C5.82319 12 5.65362 11.9298 5.5286 11.8047C5.40357 11.6797 5.33333 11.5101 5.33333 11.3333V6.66667H0.666667C0.489856 6.66667 0.320286 6.59643 0.195262 6.4714C0.0702379 6.34638 0 6.17681 0 6C0 5.82319 0.0702379 5.65362 0.195262 5.5286C0.320286 5.40357 0.489856 5.33333 0.666667 5.33333H5.33333V0.666667C5.33333 0.489856 5.40357 0.320286 5.5286 0.195262C5.65362 0.0702379 5.82319 0 6 0Z" fill="white" fill-opacity="0.65"/>
</svg>
