<svg width="24" height="24" viewBox="0 0 24 24" fill="none" xmlns="http://www.w3.org/2000/svg">
<path d="M19.248 4.46282C19.1474 4.25712 18.9474 4 18.696 4H4.5568C4.35451 4 4.10538 4.25712 4.05395 4.46282C3.95452 4.66852 4.00481 4.97707 4.10538 5.18277L9.37044 11.0475V17.9419C9.37044 18.1476 9.46987 18.4058 9.77044 18.4561L12.9807 19.9486C13.0298 20 13.1807 20 13.231 20C13.3818 20 13.4824 20 13.5315 19.9486C13.7327 19.8457 13.8321 19.6915 13.8321 19.4343L14.0332 10.9972L19.1474 5.13135C19.3486 4.97707 19.3486 4.71995 19.248 4.46282ZM12.6287 18.5075L10.623 17.5293V11.4589H12.8287L12.6287 18.5075ZM13.1315 10.1218C13.0801 10.1218 13.0801 10.1733 12.9807 10.1733H10.2721L5.90992 5.28562H17.3943L13.1315 10.1218ZM20 15.5752C20 15.318 19.7486 15.0609 19.4983 15.0609H15.4869C15.2355 15.0609 14.9864 15.318 14.9864 15.5752V15.8323C14.9864 16.0894 15.2366 16.3465 15.4869 16.3465H19.4983C19.7497 16.3465 20 16.0894 20 15.8323V15.5752ZM20 13.0028C20 12.7457 19.7486 12.4885 19.4983 12.4885H15.4869C15.2355 12.4885 14.9864 12.7457 14.9864 13.0028V13.2599C14.9864 13.517 15.2366 13.7742 15.4869 13.7742H19.4983C19.7497 13.7742 20 13.517 20 13.2599V13.0028ZM20 18.1464C20 17.8893 19.7486 17.6322 19.4983 17.6322H15.4869C15.2355 17.6322 14.9864 17.8893 14.9864 18.1464V18.4047C14.9864 18.6618 15.2366 18.9189 15.4869 18.9189H19.4983C19.7497 18.9189 20 18.6618 20 18.4047V18.1464Z"/>
</svg>
