<svg width="18" height="19" viewBox="0 0 18 19" fill="none" xmlns="http://www.w3.org/2000/svg">
<g opacity="0.45">
<path d="M15.1945 9.83891V15.5063C15.1945 15.9723 14.8118 16.349 14.3409 16.349H2.94148C2.4694 16.349 2.0878 15.9711 2.0878 15.5063V4.2551C2.0878 3.78911 2.47056 3.41243 2.94148 3.41243H8.85691L10.809 1.35156H2.37777C1.06478 1.35042 0 2.40146 0 3.69866V16.0627C0 17.3588 1.06478 18.4098 2.37777 18.4098H14.9046C16.2176 18.4098 17.2823 17.3588 17.2823 16.0627V7.63492L15.1945 9.83891Z" fill="white"/>
<path d="M17.2819 2.02054V1.34961H16.5547L17.2819 2.02054Z" fill="white"/>
<path d="M17.3479 3.56874C17.5056 3.39242 17.6297 3.24473 17.7202 3.12795C17.8316 2.97911 17.9081 2.82569 17.9499 2.66769C17.9916 2.50969 18.0079 2.35627 17.9974 2.20513C17.987 2.05515 17.9591 1.90974 17.9116 1.77121C17.8652 1.63267 17.813 1.51131 17.7573 1.40941C17.6344 1.19531 17.4233 0.959454 17.1252 0.704135C16.8271 0.448817 16.5174 0.253034 16.1961 0.117933C16.0998 0.0790053 15.9885 0.0492372 15.8609 0.0274836C15.7333 0.00572999 15.6011 -0.00342942 15.4642 0.00115028C15.3274 0.00572999 15.1917 0.0354981 15.0559 0.0927444C14.9202 0.148846 14.7915 0.237005 14.6697 0.354933C14.5479 0.484309 14.4412 0.598802 14.3496 0.700701C14.2579 0.802599 14.1768 0.890759 14.106 0.966324C14.0248 1.05219 13.9529 1.13234 13.8926 1.2079L16.9431 4.02671C17.0556 3.89848 17.1901 3.74506 17.3479 3.56874Z" fill="#F4B62C"/>
<path d="M5.27726 14.037C5.42457 14.0118 5.63567 13.9546 5.91172 13.8676C6.18778 13.7806 6.47543 13.6878 6.77236 13.5894C7.06929 13.4909 7.34303 13.397 7.59356 13.3054C7.84294 13.2138 8.0146 13.1405 8.10855 13.0856C8.25354 13.018 8.38577 12.9436 8.50407 12.8623C8.62238 12.7799 8.75345 12.6643 8.89612 12.5143C8.95759 12.4502 9.10258 12.299 9.33223 12.0632C9.56189 11.8273 9.84374 11.5319 10.1801 11.177L11.2948 10.0012L12.5324 8.69708L15.816 5.23483L12.7493 2.41602L9.46446 5.87942L8.2257 7.16746C7.82902 7.59681 7.46481 7.98265 7.13425 8.32727C6.80368 8.67075 6.5311 8.95584 6.31652 9.18139C6.10311 9.40694 5.98016 9.5409 5.95 9.58326C5.85837 9.68974 5.7621 9.81339 5.66235 9.95193C5.56144 10.0905 5.48256 10.2336 5.42341 10.3813C5.35498 10.529 5.27263 10.7454 5.17635 11.0293C5.08008 11.3132 4.98729 11.6098 4.89798 11.9201C4.80867 12.2303 4.73096 12.5234 4.666 12.8016C4.60105 13.0799 4.56045 13.286 4.54422 13.4222C4.52218 13.7039 4.57089 13.8893 4.6892 13.9798C4.80751 14.0702 5.00469 14.0885 5.27726 14.037ZM10.1128 8.42116L9.95046 6.14046L12.261 5.98017L12.4233 8.26087L10.1128 8.42116Z" fill="#F4B62C"/>
</g>
</svg>
