<svg width="24" height="24" viewBox="10 10 24 24" fill="none" xmlns="http://www.w3.org/2000/svg">
<path d="M30.8131 30.0035L26.3287 25.5813C27.5121 24.2734 28.1972 22.5294 28.1972 20.5986C28.1972 16.3633 24.7716 13 20.5986 13C16.3633 13 13 16.4256 13 20.5986C13 24.8339 16.4256 28.1972 20.5986 28.1972C22.5294 28.1972 24.2734 27.5121 25.5813 26.3287L30.0657 30.7509C30.2526 30.9377 30.6263 30.9377 30.8131 30.7509C31.0623 30.5017 31.0623 30.1903 30.8131 30.0035ZM13.9965 20.5986C13.9965 16.9862 16.9239 13.9965 20.5986 13.9965C24.2734 13.9965 27.2007 16.9239 27.2007 20.5986C27.2007 22.3426 26.5156 23.9619 25.3945 25.1453C25.3322 25.1453 25.3322 25.2076 25.2699 25.2076C25.2076 25.2699 25.2076 25.2699 25.2076 25.3322C24.0242 26.4533 22.4048 27.1384 20.6609 27.1384C16.9862 27.2007 13.9965 24.2111 13.9965 20.5986Z" fill="black"/>
</svg>
