<svg width="14" height="14" viewBox="0 0 14 14" fill="none" xmlns="http://www.w3.org/2000/svg">
<path d="M5.86967 7L0.234098 1.36443C0.0842077 1.21453 0 1.01124 0 0.799262C0 0.694301 0.0206735 0.590368 0.0608402 0.493398C0.101007 0.396427 0.15988 0.308317 0.234098 0.234098C0.308317 0.15988 0.396427 0.101007 0.493398 0.0608402C0.590368 0.0206735 0.694301 0 0.799262 0C1.01124 0 1.21453 0.0842077 1.36443 0.234098L7 5.86967L12.6356 0.234098C12.7098 0.15988 12.7979 0.101007 12.8949 0.0608402C12.9918 0.0206735 13.0958 0 13.2007 0C13.3057 0 13.4096 0.0206735 13.5066 0.0608402C13.6036 0.101007 13.6917 0.15988 13.7659 0.234098C13.8401 0.308317 13.899 0.396427 13.9392 0.493398C13.9793 0.590368 14 0.694301 14 0.799262C14 0.904222 13.9793 1.00816 13.9392 1.10513C13.899 1.2021 13.8401 1.29021 13.7659 1.36443L8.13033 7L13.7659 12.6356C13.9158 12.7855 14 12.9888 14 13.2007C14 13.4127 13.9158 13.616 13.7659 13.7659C13.616 13.9158 13.4127 14 13.2007 14C12.9888 14 12.7855 13.9158 12.6356 13.7659L7 8.13033L1.36443 13.7659C1.21453 13.9158 1.01124 14 0.799262 14C0.587284 14 0.383989 13.9158 0.234098 13.7659C0.0842077 13.616 4.17858e-09 13.4127 0 13.2007C-4.17858e-09 12.9888 0.0842077 12.7855 0.234098 12.6356L5.86967 7Z" fill="white" fill-opacity="0.7"/>
</svg>
