<svg width="28" height="28" viewBox="0 0 28 28" fill="none" xmlns="http://www.w3.org/2000/svg">
<rect width="28" height="28" rx="8" fill="black"/>
<path d="M19.7168 19.3096C19.7168 19.5862 19.6246 19.9088 19.3942 20.0932C19.2098 20.3236 18.9332 20.4158 18.6567 20.4158H9.39243C8.79325 20.4158 8.33234 19.9088 8.33234 19.3096V12.9491C8.33234 12.3038 8.79325 11.8429 9.39243 11.8429H18.6567C18.9332 11.8429 19.2098 11.9812 19.3942 12.1655C19.5785 12.396 19.7168 12.6725 19.7168 12.9491V19.3096ZM11.4665 9.99927C11.4665 8.43218 12.5266 7.326 14.0015 7.326C15.4764 7.326 16.5365 8.47827 16.5365 9.99927V10.5524H11.4665V9.99927ZM17.6888 10.5524V9.99927C17.6888 7.833 16.0295 6.08154 14.0015 6.08154C11.9274 6.08154 10.2682 7.833 10.2682 9.99927V10.5524H9.20807C8.0558 10.5524 7.08789 11.5664 7.08789 12.8108V19.5401C7.08789 20.7384 8.0558 21.7524 9.20807 21.7524H18.7489C19.9012 21.7524 20.8691 20.7384 20.8691 19.494V12.8108C20.8691 11.5664 19.9012 10.5524 18.7489 10.5524H17.6888Z" fill="white"/>
<path d="M16.3287 16.7918L11.0628 16.7584C10.792 16.7584 10.5723 16.5386 10.5723 16.2679C10.5723 15.9971 10.792 15.7773 11.0628 15.7773L16.3287 15.8108C16.5995 15.8108 16.8192 16.0305 16.8192 16.3013C16.8192 16.572 16.5995 16.7918 16.3287 16.7918Z" fill="white"/>
<path d="M16.5914 16.5828L14.5107 14.5021C14.3194 14.3108 14.3194 13.9998 14.5107 13.8085C14.702 13.6172 15.013 13.6172 15.2043 13.8085L17.286 15.8892C17.4773 16.0805 17.4773 16.3915 17.286 16.5828C17.0937 16.7751 16.7837 16.7751 16.5914 16.5828Z" fill="white"/>
<path d="M14.5107 18.1007L16.5914 16.0199C16.7827 15.8286 17.0937 15.8286 17.285 16.0199C17.4763 16.2112 17.4763 16.5222 17.285 16.7135L15.2043 18.7942C15.013 18.9855 14.702 18.9855 14.5107 18.7942C14.3194 18.6029 14.3194 18.292 14.5107 18.1007Z" fill="white"/>
</svg>
