<svg width="18" height="18" viewBox="0 0 18 18" fill="none" xmlns="http://www.w3.org/2000/svg">
<path d="M8.56028 3.30213L4.41651 5.65443C4.25778 5.75424 4.12574 5.89004 4.03151 6.05042C3.93728 6.2108 3.88361 6.39107 3.875 6.57607V11.273C3.8852 11.4581 3.93952 11.6383 4.03357 11.7991C4.12763 11.9598 4.2588 12.0966 4.41651 12.1985L8.56028 14.5508C8.72878 14.6345 8.91495 14.6781 9.10376 14.6781C9.29257 14.6781 9.47873 14.6345 9.64724 14.5508L13.791 12.2023C13.9492 12.1001 14.0807 11.9627 14.1748 11.8012C14.2689 11.6398 14.3229 11.4588 14.3325 11.273V6.57607C14.3239 6.39107 14.2702 6.2108 14.176 6.05042C14.0818 5.89004 13.9497 5.75424 13.791 5.65443L9.64724 3.30213C9.47873 3.21842 9.29257 3.1748 9.10376 3.1748C8.91495 3.1748 8.72878 3.21842 8.56028 3.30213Z" fill="white" fill-opacity="0.65"/>
<path d="M9 0.516602C9.20528 0.516602 9.40812 0.563764 9.5918 0.655273L15.8926 4.29492V4.2959C16.0657 4.40664 16.2097 4.55744 16.3125 4.73535C16.3896 4.86883 16.4425 5.01481 16.4678 5.16602L16.4834 5.31934V12.582C16.4728 12.7901 16.4141 12.993 16.3105 13.1738C16.2082 13.3525 16.0649 13.5041 15.8936 13.6182L9.5918 17.252C9.40789 17.3437 9.20561 17.3926 9 17.3926C8.79425 17.3926 8.59124 17.3448 8.40723 17.2529L2.10645 13.6123C1.93564 13.4987 1.79274 13.3478 1.69043 13.1699C1.61276 13.0348 1.55961 12.8871 1.5332 12.7344L1.5166 12.5801V5.31934C1.52599 5.11397 1.5847 4.91339 1.6875 4.73535C1.79029 4.55744 1.93435 4.40664 2.10742 4.2959L2.10645 4.29492L8.40723 0.655273C8.59111 0.56351 8.79443 0.516602 9 0.516602Z" stroke="white" stroke-opacity="0.65" stroke-width="1.03378"/>
</svg>
