<svg width="32" height="32" viewBox="0 0 32 32" fill="none" xmlns="http://www.w3.org/2000/svg">
<circle cx="16" cy="16" r="16" fill="#F39B01"/>
<path d="M23.125 12.936C23.357 12.936 23.5796 13.0282 23.7437 13.1923C23.9078 13.3564 24 13.579 24 13.8111V21.249C24 21.7131 23.8156 22.1583 23.4874 22.4865C23.1592 22.8147 22.7141 22.9991 22.2499 22.9991L10.8743 22.9991C10.4101 22.9991 9.96499 22.8147 9.63678 22.4865C9.30857 22.1583 9.12419 21.7131 9.12419 21.249L9.12419 13.8111C9.12419 13.579 9.21638 13.3564 9.38048 13.1923C9.54459 13.0282 9.76716 12.936 9.99924 12.936C10.2313 12.936 10.4539 13.0282 10.618 13.1923C10.7821 13.3564 10.8743 13.579 10.8743 13.8111L10.8743 21.249L22.2499 21.249V13.8111C22.2499 13.579 22.3421 13.3564 22.5062 13.1923C22.6703 13.0282 22.8929 12.936 23.125 12.936Z" fill="black"/>
<path d="M19.8579 12.6214C20.0064 12.4431 20.078 12.2132 20.057 11.9822C20.0359 11.7511 19.9241 11.5379 19.7459 11.3893L17.1207 9.20171C16.9635 9.07074 16.7653 8.99902 16.5607 8.99902C16.3561 8.99902 16.1579 9.07074 16.0007 9.20171L13.3755 11.3893C13.2841 11.4618 13.2082 11.5519 13.1521 11.6542C13.096 11.7566 13.0609 11.8691 13.049 11.9851C13.037 12.1012 13.0484 12.2185 13.0824 12.3301C13.1165 12.4417 13.1725 12.5454 13.2472 12.635C13.3219 12.7246 13.4138 12.7984 13.5174 12.852C13.621 12.9056 13.7344 12.938 13.8507 12.9471C13.967 12.9563 14.084 12.9421 14.1947 12.9054C14.3055 12.8687 14.4078 12.8102 14.4956 12.7334L15.6857 11.742L15.6857 18.1867C15.6857 18.3016 15.7083 18.4154 15.7523 18.5216C15.7962 18.6277 15.8607 18.7242 15.942 18.8054C16.0232 18.8867 16.1197 18.9512 16.2258 18.9951C16.332 19.0391 16.4458 19.0617 16.5607 19.0617C16.6756 19.0617 16.7894 19.0391 16.8956 18.9951C17.0017 18.9512 17.0982 18.8867 17.1795 18.8054C17.2607 18.7242 17.3252 18.6277 17.3691 18.5216C17.4131 18.4154 17.4358 18.3016 17.4358 18.1867L17.4358 11.742L18.6258 12.7334C18.8041 12.8819 19.034 12.9535 19.265 12.9325C19.4961 12.9115 19.7093 12.7996 19.8579 12.6214Z" fill="black"/>
</svg>
