<svg width="32" height="32" viewBox="0 0 32 32" fill="none" xmlns="http://www.w3.org/2000/svg">
<circle cx="16" cy="16" r="16" fill="#CE5BE3"/>
<path d="M23.125 12.936C23.357 12.936 23.5796 13.0282 23.7437 13.1923C23.9078 13.3564 24 13.579 24 13.8111V21.249C24 21.7131 23.8156 22.1583 23.4874 22.4865C23.1592 22.8147 22.7141 22.9991 22.2499 22.9991L10.8743 22.9991C10.4101 22.9991 9.96499 22.8147 9.63678 22.4865C9.30857 22.1583 9.12419 21.7131 9.12419 21.249L9.12419 13.8111C9.12419 13.579 9.21638 13.3564 9.38048 13.1923C9.54459 13.0282 9.76716 12.936 9.99924 12.936C10.2313 12.936 10.4539 13.0282 10.618 13.1923C10.7821 13.3564 10.8743 13.579 10.8743 13.8111L10.8743 21.249L22.2499 21.249V13.8111C22.2499 13.579 22.3421 13.3564 22.5062 13.1923C22.6703 13.0282 22.8929 12.936 23.125 12.936Z" fill="black"/>
<path d="M13.2476 15.4392C13.0991 15.6174 13.0275 15.8473 13.0485 16.0784C13.0695 16.3094 13.1814 16.5227 13.3596 16.6712L15.9847 18.8588C16.142 18.9898 16.3401 19.0615 16.5448 19.0615C16.7494 19.0615 16.9476 18.9898 17.1048 18.8588L19.7299 16.6712C19.8213 16.5987 19.8973 16.5086 19.9534 16.4063C20.0095 16.304 20.0445 16.1915 20.0565 16.0754C20.0684 15.9593 20.0571 15.8421 20.023 15.7305C19.989 15.6189 19.933 15.5152 19.8583 15.4255C19.7836 15.3359 19.6917 15.2621 19.5881 15.2085C19.4844 15.1549 19.3711 15.1226 19.2548 15.1134C19.1385 15.1042 19.0215 15.1184 18.9107 15.1551C18.8 15.1918 18.6977 15.2503 18.6099 15.3271L17.4198 16.3186L17.4198 9.87385C17.4198 9.75894 17.3972 9.64515 17.3532 9.53898C17.3092 9.43282 17.2448 9.33635 17.1635 9.2551C17.0823 9.17384 16.9858 9.10939 16.8796 9.06541C16.7735 9.02144 16.6597 8.9988 16.5448 8.9988C16.4298 8.9988 16.3161 9.02144 16.2099 9.06541C16.1037 9.10939 16.0073 9.17384 15.926 9.2551C15.8448 9.33635 15.7803 9.43282 15.7363 9.53898C15.6923 9.64515 15.6697 9.75894 15.6697 9.87385L15.6697 16.3186L14.4796 15.3271C14.3014 15.1787 14.0715 15.1071 13.8404 15.1281C13.6094 15.1491 13.3961 15.261 13.2476 15.4392Z" fill="black"/>
</svg>
