<svg width="20" height="20" viewBox="0 0 20 20" fill="none" xmlns="http://www.w3.org/2000/svg">
<g clip-path="url(#clip0_1_25302)">
<path d="M10 0C4.476 0 0 4.476 0 10C0 15.524 4.476 20 10 20C15.524 20 20 15.524 20 10C20 4.476 15.524 0 10 0ZM18.6187 9.33333H15.9773C15.8627 6.44667 15.02 3.896 13.7453 2.19333C16.4613 3.49867 18.3747 6.18 18.6187 9.33333ZM14.6333 9.33333H10.6667V1.432C12.8093 2.00267 14.4653 5.27733 14.6333 9.33333ZM9.33333 1.432V9.33333H5.36667C5.53467 5.27733 7.19067 2.00267 9.33333 1.432ZM6.256 2.19333C4.98 3.896 4.13867 6.44667 4.024 9.33333H1.38133C1.62533 6.18 3.53867 3.49867 6.256 2.19333ZM1.38133 10.6667H4.02267C4.13733 13.5533 4.98 16.104 6.25467 17.8067C3.53867 16.5013 1.62533 13.82 1.38133 10.6667ZM5.36667 10.6667H9.33333V18.568C7.19067 17.9973 5.53467 14.7227 5.36667 10.6667ZM10.6667 18.568V10.6667H14.6333C14.4653 14.7227 12.8093 17.9973 10.6667 18.568ZM13.744 17.8067C15.02 16.104 15.8613 13.5533 15.976 10.6667H18.6173C18.3747 13.82 16.4613 16.5013 13.744 17.8067Z" fill="white" fill-opacity="0.9"/>
</g>
<defs>
<clipPath id="clip0_1_25302">
<rect width="20" height="20" fill="white"/>
</clipPath>
</defs>
</svg>
