<svg width="18" height="21" viewBox="0 0 18 21" fill="none" xmlns="http://www.w3.org/2000/svg">
<path d="M8.103 18.75L8.1 18.783C8.10004 18.9964 8.17593 19.2029 8.31414 19.3656C8.45235 19.5282 8.64386 19.6365 8.8545 19.671L9 19.683C9.12102 19.6831 9.24081 19.6588 9.35221 19.6115C9.46361 19.5642 9.56433 19.4949 9.64835 19.4078C9.73237 19.3207 9.79796 19.2176 9.8412 19.1046C9.88444 18.9915 9.90444 18.8709 9.9 18.75H11.25C11.2497 19.3278 11.0271 19.8834 10.6284 20.3016C10.2296 20.7198 9.68528 20.9685 9.10813 20.9963C8.53097 21.0241 7.96525 20.8287 7.5282 20.4507C7.09114 20.0728 6.81626 19.5411 6.7605 18.966L6.75 18.75H8.103ZM9.01313 0C9.43666 0 9.78 0.343341 9.78 0.766874V1.5405C11.6241 1.73333 13.3313 2.60238 14.5723 3.97993C15.8133 5.35749 16.5 7.14589 16.5 9V16.4985L17.2507 16.4992C17.6647 16.4997 18 16.8353 18 17.2492C18 17.6638 17.6638 17.9997 17.2492 17.9992L16.5 17.9985V18H1.5V17.9985L0.750751 17.9992C0.336244 17.9997 0 17.6638 0 17.2492C0 16.8353 0.33533 16.4997 0.74925 16.4992L1.5 16.4985V9C1.49986 7.14141 2.18984 5.34897 3.43615 3.97018C4.68247 2.59139 6.39634 1.72447 8.2455 1.5375L8.24625 0.766126C8.24667 0.342885 8.58988 0 9.01313 0ZM9 3C7.4087 3 5.88258 3.63214 4.75736 4.75736C3.63214 5.88258 3 7.4087 3 9V16.4985H15V9C15 7.4087 14.3679 5.88258 13.2426 4.75736C12.1174 3.63214 10.5913 3 9 3Z" fill="white" fill-opacity="0.9"/>
</svg>
