<svg width="400" height="400" viewBox="0 0 400 400" fill="none" xmlns="http://www.w3.org/2000/svg">
<rect width="400" height="400" rx="200" fill="#8A8A8A"/>
<g clip-path="url(#clip0_33370_9746)">
<path d="M99.9873 105.812H227.334C227.334 105.812 227.03 122.219 222.262 131.441H152.351V177.186H215.948C215.948 177.186 214.757 190.979 209.66 204.12C206.845 204.251 152.376 204.12 152.376 204.12V261.229C152.376 267.839 150.779 274.422 147.457 280.091C142.614 288.347 131.355 298.274 117.256 298.431C101.433 298.431 100.013 298.431 100.013 298.431V281.188C100.013 281.188 110.891 282.312 115.633 273.534C116.8 271.392 117.256 268.884 117.256 266.428V142.361C117.256 132.93 109.598 125.249 100.469 125.876C100.317 125.876 100.165 125.902 100.013 125.902V105.812H99.9873Z" fill="white"/>
<path d="M239.788 105.812C239.788 105.812 266.718 106.361 277.469 131.441C279.447 135.673 292.861 170.733 259.389 186.199C262.863 187.531 277.976 191.737 287.181 208.666C295.727 224.393 296.285 243.725 288.627 259.949C285.685 266.219 281.172 273.037 274.249 279.699C271.485 282.39 262.204 294.199 227.362 294.199C192.521 294.199 155.042 294.199 155.042 294.199C155.042 294.199 160.063 288.112 165.515 269.119H228.022C234.615 269.119 241.182 267.786 247.116 264.808C255.332 260.68 264.106 252.791 263.852 237.9C263.852 229.226 263.852 216.712 251.148 208.718C246.229 205.609 240.472 204.225 234.716 204.225H221.53C221.53 204.225 225.993 192.756 227.261 177.081H232.865C243.16 177.081 252.238 169.635 254.089 159.186C254.318 157.853 254.495 156.442 254.546 154.901C254.546 148.997 257.183 132.904 235.096 131.415C235.096 131.441 239.281 120.808 239.788 105.812Z" fill="white" fill-opacity="0.7"/>
<path d="M227.335 74H205.629V105.794H227.335V74Z" fill="white" fill-opacity="0.7"/>
<path d="M192.497 74H170.791V105.794H192.497V74Z" fill="white" fill-opacity="0.7"/>
<path d="M227.335 294.188H205.629V325.981H227.335V294.188Z" fill="white" fill-opacity="0.7"/>
<path d="M192.497 294.188H170.791V325.981H192.497V294.188Z" fill="white" fill-opacity="0.7"/>
</g>
<defs>
<clipPath id="clip0_33370_9746">
<rect width="200" height="252" fill="white" transform="translate(100 74)"/>
</clipPath>
</defs>
</svg>
