<svg width="17" height="17" viewBox="0 0 17 17" fill="none" xmlns="http://www.w3.org/2000/svg">
<path d="M8.5 17C6.81886 17 5.17547 16.5015 3.77766 15.5675C2.37984 14.6335 1.29037 13.306 0.647028 11.7528C0.0036829 10.1996 -0.164645 8.49057 0.163329 6.84174C0.491303 5.1929 1.30085 3.67834 2.4896 2.4896C3.67834 1.30085 5.1929 0.491303 6.84173 0.163329C8.49057 -0.164645 10.1996 0.0036829 11.7528 0.647028C13.306 1.29037 14.6335 2.37984 15.5675 3.77766C16.5015 5.17547 17 6.81886 17 8.5C16.9971 10.7534 16.1006 12.9138 14.5072 14.5072C12.9138 16.1006 10.7534 16.9971 8.5 17ZM8.5 1.2C7.0562 1.2 5.64482 1.62814 4.44434 2.43027C3.24386 3.23241 2.3082 4.37251 1.75568 5.70641C1.20316 7.04031 1.0586 8.5081 1.34027 9.92416C1.62194 11.3402 2.3172 12.641 3.33812 13.6619C4.35905 14.6828 5.65978 15.3781 7.07584 15.6597C8.4919 15.9414 9.95969 15.7968 11.2936 15.2443C12.6275 14.6918 13.7676 13.7561 14.5697 12.5557C15.3719 11.3552 15.8 9.94381 15.8 8.5C15.7976 6.56465 15.0278 4.70925 13.6593 3.34075C12.2908 1.97225 10.4354 1.20239 8.5 1.2Z" fill="white"/>
<path d="M11.2205 7.68765H5.78051C5.62139 7.68765 5.46877 7.62444 5.35625 7.51191C5.24373 7.39939 5.18052 7.24678 5.18052 7.08765C5.18052 6.92852 5.24373 6.77591 5.35625 6.66339C5.46877 6.55087 5.62139 6.48765 5.78051 6.48765H9.97251L9.55351 5.96365C9.46481 5.83881 9.42719 5.68477 9.44838 5.5331C9.46957 5.38142 9.54796 5.24359 9.66749 5.14784C9.78702 5.05209 9.93863 5.00567 10.0913 5.01809C10.2439 5.03051 10.386 5.10084 10.4885 5.21465L11.6885 6.71465C11.7589 6.80295 11.8029 6.90931 11.8156 7.02152C11.8282 7.13373 11.8089 7.24722 11.7599 7.34896C11.7109 7.45069 11.6342 7.53654 11.5386 7.59663C11.443 7.65672 11.3324 7.68862 11.2195 7.68865L11.2205 7.68765ZM6.97951 12.0136C6.88939 12.0136 6.80042 11.9933 6.71923 11.9542C6.63803 11.915 6.5667 11.8581 6.51051 11.7876L5.31052 10.2877C5.24018 10.1994 5.19615 10.0931 5.18348 9.98103C5.17081 9.86891 5.19001 9.7555 5.23888 9.65379C5.28774 9.55209 5.3643 9.46623 5.45975 9.40607C5.5552 9.3459 5.66568 9.31387 5.77851 9.31365H11.2185C11.3776 9.31365 11.5303 9.37687 11.6428 9.48939C11.7553 9.60191 11.8185 9.75452 11.8185 9.91365C11.8185 10.0728 11.7553 10.2254 11.6428 10.3379C11.5303 10.4504 11.3776 10.5137 11.2185 10.5137H7.02851L7.44751 11.0377C7.51814 11.1259 7.56243 11.2322 7.57526 11.3445C7.58809 11.4568 7.56896 11.5704 7.52005 11.6723C7.47115 11.7742 7.39447 11.8602 7.29884 11.9204C7.20321 11.9806 7.09252 12.0126 6.97951 12.0127V12.0136Z" fill="#F4B62C"/>
</svg>
