<svg width="12" height="12" viewBox="0 0 12 12" fill="none" xmlns="http://www.w3.org/2000/svg">
<path d="M11.3125 4.09326C11.4948 4.09326 11.6697 4.1657 11.7986 4.29463C11.9276 4.42357 12 4.59844 12 4.78078V10.6247C12 10.9894 11.8551 11.3391 11.5973 11.597C11.3394 11.8549 10.9896 11.9998 10.625 11.9998L1.68719 11.9998C1.3225 11.9998 0.972754 11.8549 0.714884 11.597C0.457014 11.3391 0.312143 10.9894 0.312143 10.6247V4.78078C0.312143 4.59844 0.384579 4.42357 0.513514 4.29463C0.642449 4.1657 0.817324 4.09326 0.999666 4.09326C1.18201 4.09326 1.35688 4.1657 1.48582 4.29463C1.61475 4.42357 1.68719 4.59844 1.68719 4.78078V10.6247L10.625 10.6247V4.78078C10.625 4.59844 10.6974 4.42357 10.8263 4.29463C10.9553 4.1657 11.1301 4.09326 11.3125 4.09326Z" fill="white"/>
<path d="M3.55181 6.06017C3.43516 6.20023 3.3789 6.38088 3.3954 6.5624C3.41191 6.74393 3.49982 6.91147 3.63981 7.0282L5.70237 8.747C5.82591 8.8499 5.9816 8.90625 6.14238 8.90625C6.30316 8.90625 6.45886 8.8499 6.5824 8.747L8.64496 7.0282C8.71678 6.97122 8.77647 6.90045 8.82053 6.82006C8.86459 6.73966 8.89213 6.65127 8.90153 6.56008C8.91092 6.46889 8.90198 6.37674 8.87524 6.28905C8.84849 6.20136 8.80448 6.11991 8.74579 6.04948C8.6871 5.97905 8.61492 5.92108 8.53349 5.87896C8.45207 5.83684 8.36304 5.81143 8.27165 5.80423C8.18025 5.79702 8.08835 5.80817 8.00132 5.83701C7.9143 5.86585 7.83393 5.91181 7.76493 5.97217L6.82991 6.75113L6.82991 1.68754C6.82991 1.59725 6.81212 1.50785 6.77757 1.42444C6.74302 1.34102 6.69238 1.26523 6.62854 1.20139C6.56469 1.13754 6.4889 1.0869 6.40549 1.05235C6.32207 1.0178 6.23267 1.00002 6.14238 1.00002C6.0521 1.00002 5.9627 1.0178 5.87928 1.05235C5.79587 1.0869 5.72008 1.13754 5.65623 1.20139C5.59239 1.26523 5.54175 1.34102 5.5072 1.42444C5.47265 1.50785 5.45486 1.59725 5.45486 1.68754L5.45486 6.75113L4.51984 5.97217C4.37978 5.85552 4.19913 5.79926 4.0176 5.81577C3.83608 5.83227 3.66853 5.92018 3.55181 6.06017Z" fill="white"/>
</svg>
