<svg width="19" height="19" viewBox="0 0 19 19" fill="none" xmlns="http://www.w3.org/2000/svg">
<path d="M8.98355 10.3218L0.511865 5.9603C0.366291 5.90157 0.241567 5.80051 0.153728 5.67012C0.0658892 5.53973 0.0189523 5.38598 0.0189523 5.22863C0.0189523 5.07128 0.0658892 4.91753 0.153728 4.78714C0.241567 4.65675 0.366291 4.55569 0.511865 4.49695L8.88879 0.135407C9.22993 -0.0451358 9.6374 -0.0451358 9.97855 0.135407L18.5071 4.49695C18.6527 4.55569 18.7774 4.65675 18.8652 4.78714C18.9531 4.91753 19 5.07128 19 5.22863C19 5.38598 18.9531 5.53973 18.8652 5.67012C18.7774 5.80051 18.6527 5.90157 18.5071 5.9603L10.1112 10.3218C9.75965 10.5119 9.33511 10.5119 8.98355 10.3218ZM18.4597 8.76348C18.6045 8.82419 18.7282 8.92651 18.8153 9.05754C18.9023 9.18857 18.9487 9.34248 18.9487 9.4999C18.9487 9.65732 18.9023 9.81123 18.8153 9.94226C18.7282 10.0733 18.6045 10.1756 18.4597 10.2363L10.0638 14.5979C9.89291 14.6825 9.70484 14.7265 9.51421 14.7265C9.32359 14.7265 9.13552 14.6825 8.9646 14.5979L0.492913 10.2363C0.348072 10.1756 0.224371 10.0733 0.137367 9.94226C0.0503631 9.81123 0.00394188 9.65732 0.00394188 9.4999C0.00394188 9.34248 0.0503631 9.18857 0.137367 9.05754C0.224371 8.92651 0.348072 8.82419 0.492913 8.76348L1.14677 8.4309L8.98355 12.4599C9.33038 12.6309 9.73596 12.6309 10.0828 12.4599L17.8248 8.4404L18.4597 8.76348ZM18.4597 13.0395C18.6053 13.0982 18.73 13.1993 18.8178 13.3297C18.9057 13.4601 18.9526 13.6138 18.9526 13.7712C18.9526 13.9285 18.9057 14.0823 18.8178 14.2127C18.73 14.3431 18.6053 14.4441 18.4597 14.5029L10.0638 18.8644C9.89425 18.9535 9.70566 19 9.51421 19C9.32277 19 9.13418 18.9535 8.9646 18.8644L0.492913 14.5029C0.347339 14.4441 0.222614 14.3431 0.134776 14.2127C0.0469369 14.0823 0 13.9285 0 13.7712C0 13.6138 0.0469369 13.4601 0.134776 13.3297C0.222614 13.1993 0.347339 13.0982 0.492913 13.0395L1.14677 12.6974L8.98355 16.7359C9.33038 16.9069 9.73596 16.9069 10.0828 16.7359L17.8248 12.7069L18.4597 13.0395Z" fill="#AAAAAA"/>
</svg>
