<svg xmlns="http://www.w3.org/2000/svg" width="18" height="18" viewBox="0 0 18 18" fill="none">
  <path d="M3.38576 5.50336L10.7951 5.49809L4.32139 3.91409C4.16871 3.88288 4.00989 3.91335 3.8796 3.99884C3.74932 4.08434 3.65815 4.21791 3.62602 4.3704L3.38576 5.50336ZM2.51479 5.68453C2.47498 5.59697 2.46433 5.49894 2.48442 5.40488L2.7434 4.18359C2.78394 3.99154 2.86199 3.80939 2.97307 3.64756C3.08415 3.48573 3.22607 3.34742 3.3907 3.24054C3.55533 3.13366 3.73944 3.06033 3.93246 3.02473C4.12549 2.98914 4.32364 2.99199 4.51556 3.03312L4.52842 3.03605L14.5797 5.49546L14.7612 5.49531C14.9586 5.49383 15.1543 5.53156 15.337 5.60632C15.5197 5.68107 15.6857 5.79137 15.8255 5.9308C15.9652 6.07024 16.0758 6.23603 16.151 6.41857C16.2261 6.60111 16.2643 6.79675 16.2632 6.99415L16.2622 8.24205C16.2622 8.33523 16.2332 8.42611 16.1794 8.50219C16.1256 8.57828 16.0496 8.63583 15.9617 8.66693C15.0838 8.97786 14.4964 9.80824 14.4957 10.7391C14.4952 11.1929 14.6356 11.6357 14.8975 12.0063C15.1594 12.3769 15.5299 12.6571 15.9578 12.8081C16.0681 12.847 16.1589 12.9272 16.2112 13.0318L16.2236 13.0568C16.255 13.1195 16.2712 13.1886 16.2712 13.2587L16.2703 14.5062C16.2703 14.7024 16.2316 14.8967 16.1565 15.078C16.0814 15.2592 15.9714 15.4239 15.8326 15.5626C15.6939 15.7014 15.5291 15.8114 15.3479 15.8864C15.1666 15.9615 14.9723 16.0001 14.7761 16L3.23053 15.9895C3.03314 15.991 2.83741 15.9532 2.65472 15.8785C2.47202 15.8037 2.306 15.6934 2.16627 15.554C2.02654 15.4145 1.91589 15.2488 1.84075 15.0662C1.76561 14.8837 1.72747 14.688 1.72854 14.4906L1.72951 13.2427C1.72957 13.1496 1.75849 13.0587 1.8123 12.9826C1.8661 12.9065 1.94215 12.849 2.02999 12.8179C2.90795 12.5069 3.49537 11.6766 3.49605 10.7457C3.49654 10.2919 3.35614 9.84909 3.09424 9.47849C2.83233 9.10789 2.46183 8.82774 2.0339 8.67671C1.94587 8.64562 1.86965 8.58798 1.81577 8.51174C1.76188 8.43551 1.73298 8.34443 1.73305 8.25107L1.73387 7.00617C1.73227 6.73584 1.80405 6.47014 1.94158 6.2374C2.07911 6.00466 2.27722 5.8136 2.51479 5.6846V5.68453ZM13.5936 10.7385C13.5944 9.53498 14.2906 8.45081 15.3603 7.9409L15.3611 6.99046C15.3617 6.9124 15.3468 6.83501 15.3172 6.76277C15.2876 6.69054 15.2439 6.62491 15.1887 6.56971C15.1331 6.51424 15.0669 6.47043 14.9942 6.44085C14.9214 6.41126 14.8434 6.39649 14.7649 6.39741L3.2312 6.40553C3.15292 6.40509 3.07533 6.42019 3.00292 6.44996C2.93051 6.47973 2.86474 6.52358 2.8094 6.57896C2.75374 6.63472 2.70973 6.70101 2.67996 6.77396C2.65018 6.84691 2.63523 6.92506 2.63597 7.00384L2.63529 7.95044C3.16339 8.20213 3.60931 8.59838 3.92133 9.09323C4.23335 9.58809 4.39868 10.1613 4.39814 10.7463C4.39732 11.9498 3.70112 13.034 2.63139 13.5439L2.63063 14.4943C2.63004 14.5724 2.64497 14.6498 2.67456 14.722C2.70415 14.7943 2.74782 14.8599 2.80301 14.9151C2.91442 15.0265 3.06597 15.0886 3.2276 15.0874L14.7765 15.0979C14.8543 15.0979 14.9312 15.0826 15.003 15.0528C15.0748 15.0231 15.1401 14.9795 15.195 14.9245C15.25 14.8695 15.2935 14.8042 15.3232 14.7324C15.3529 14.6606 15.3682 14.5836 15.3682 14.5059L15.3689 13.5402C14.8376 13.2899 14.3884 12.8935 14.0741 12.3973C13.7597 11.9012 13.593 11.3258 13.5936 10.7384V10.7385ZM6.25127 8.82984H11.9064C11.9667 8.82874 12.0267 8.83968 12.0828 8.86203C12.1389 8.88437 12.19 8.91767 12.2331 8.95997C12.2762 9.00228 12.3104 9.05275 12.3337 9.10843C12.3571 9.16411 12.3691 9.22389 12.3691 9.28427C12.3691 9.34465 12.3571 9.40443 12.3337 9.46011C12.3104 9.51579 12.2762 9.56625 12.2331 9.60856C12.19 9.65087 12.1389 9.68417 12.0828 9.70651C12.0267 9.72885 11.9667 9.7398 11.9064 9.7387H6.25127C6.13218 9.73653 6.0187 9.6877 5.93525 9.60272C5.85179 9.51773 5.80503 9.40338 5.80503 9.28427C5.80503 9.16516 5.85179 9.05081 5.93525 8.96582C6.0187 8.88083 6.13218 8.832 6.25127 8.82984ZM6.25127 11.7617H11.9064C11.9667 11.7606 12.0267 11.7715 12.0828 11.7938C12.1389 11.8162 12.19 11.8495 12.2331 11.8918C12.2762 11.9341 12.3104 11.9846 12.3337 12.0402C12.3571 12.0959 12.3691 12.1557 12.3691 12.2161C12.3691 12.2765 12.3571 12.3362 12.3337 12.3919C12.3104 12.4476 12.2762 12.4981 12.2331 12.5404C12.19 12.5827 12.1389 12.616 12.0828 12.6383C12.0267 12.6607 11.9667 12.6716 11.9064 12.6705H6.25127C6.1909 12.6716 6.13092 12.6607 6.07482 12.6383C6.01872 12.616 5.96764 12.5827 5.92456 12.5404C5.88147 12.4981 5.84725 12.4476 5.82389 12.3919C5.80053 12.3362 5.7885 12.2765 5.7885 12.2161C5.7885 12.1557 5.80053 12.0959 5.82389 12.0402C5.84725 11.9846 5.88147 11.9341 5.92456 11.8918C5.96764 11.8495 6.01872 11.8162 6.07482 11.7938C6.13092 11.7715 6.1909 11.7606 6.25127 11.7617Z" fill="white" fill-opacity="0.85"/>
</svg>