<svg xmlns="http://www.w3.org/2000/svg" width="18" height="18" viewBox="0 0 18 18" fill="none">
  <path d="M7.69737 6.58203C7.56784 6.58203 7.44362 6.63349 7.35203 6.72508C7.26044 6.81667 7.20898 6.94089 7.20898 7.07042C7.20898 7.19994 7.26044 7.32417 7.35203 7.41576C7.44362 7.50735 7.56784 7.5588 7.69737 7.5588H10.3014C10.431 7.5588 10.5552 7.50735 10.6468 7.41576C10.7384 7.32417 10.7898 7.19994 10.7898 7.07042C10.7898 6.94089 10.7384 6.81667 10.6468 6.72508C10.5552 6.63349 10.431 6.58203 10.3014 6.58203H7.69639H7.69737Z" fill="white" fill-opacity="0.85"/>
  <path d="M7.19786 3.00019C6.70361 3.00019 6.37249 3.00019 6.05504 3.07833C5.9114 3.11317 5.77092 3.15989 5.63503 3.21801C5.33418 3.34694 5.07631 3.54522 4.69928 3.8363L4.63188 3.88709C3.95107 4.41162 3.41092 4.82772 3.01435 5.19987C2.60899 5.58081 2.3101 5.95394 2.15284 6.41107C2.02419 6.7842 1.97592 7.18032 2.01121 7.57343C2.05418 8.05204 2.25735 8.48182 2.56308 8.937C2.861 9.38241 3.28785 9.89814 3.82507 10.5467L6.46723 13.7378C6.94585 14.3171 7.34047 14.7927 7.70285 15.119C8.08281 15.4618 8.49013 15.6982 9 15.6982C9.50987 15.6982 9.91719 15.4618 10.2972 15.119C10.6586 14.7927 11.0532 14.3171 11.5328 13.7378L14.1749 10.5467C14.7122 9.89814 15.139 9.38241 15.4369 8.937C15.7426 8.48182 15.9448 8.05302 15.9888 7.57245C16.0241 7.17935 15.9758 6.78322 15.8472 6.41009C15.6909 5.95394 15.391 5.57984 14.9857 5.19987C14.5891 4.82772 14.048 4.41162 13.3671 3.88709L13.3007 3.8363C12.9227 3.54522 12.6658 3.34694 12.365 3.21801C12.2291 3.15955 12.0886 3.1125 11.945 3.07735C11.6275 2.99921 11.2964 2.99921 10.8021 3.00019H7.19786ZM6.28653 4.0258C6.47603 3.97989 6.68212 3.97696 7.25646 3.97696H10.7435C11.3179 3.97696 11.525 3.97989 11.7135 4.0258C11.8053 4.04924 11.8942 4.07854 11.9801 4.11566C12.154 4.18989 12.3103 4.30613 12.7518 4.64507C13.458 5.18913 13.9591 5.57593 14.3175 5.91194C14.6702 6.24404 14.8401 6.48823 14.9231 6.72754C15.0081 6.97369 15.0394 7.23058 15.0159 7.48552C14.9935 7.73264 14.889 8.00125 14.6252 8.39391C14.3586 8.79244 13.9639 9.27008 13.4052 9.94405L10.8051 13.0853C10.2952 13.7007 9.94551 14.1207 9.64272 14.3942C9.35261 14.656 9.16996 14.7214 9 14.7214C8.83004 14.7214 8.64739 14.656 8.35631 14.3942C8.05351 14.1207 7.7048 13.7007 7.19395 13.0853L4.59476 9.94405C4.03605 9.27008 3.64144 8.79244 3.3738 8.39391C3.11105 8.00125 3.00654 7.73264 2.98309 7.48552C2.96063 7.23058 2.99286 6.97369 3.07686 6.72754C3.15891 6.48726 3.32985 6.24404 3.68246 5.91194C4.04094 5.57593 4.54202 5.18913 5.2492 4.64507C5.68875 4.30613 5.84503 4.18989 6.02085 4.11566C6.1068 4.07873 6.19566 4.049 6.28653 4.02677V4.0258Z" fill="white" fill-opacity="0.85"/>
</svg>