<svg xmlns="http://www.w3.org/2000/svg" width="18" height="18" viewBox="0 0 18 18" fill="none">
  <path d="M8.5037 17.4582C8.04496 17.4582 7.59362 17.3509 7.22368 17.1438L3.60188 15.0536C2.09989 14.0436 2 13.8586 2 12.2752V8.47585C2 6.89246 2.09989 6.70749 3.56858 5.71973L7.22737 3.60733C7.95617 3.18558 9.05122 3.18558 9.77632 3.60733L13.3981 5.69753C14.9001 6.70749 15 6.89246 15 8.47585V12.2752C15 13.8586 14.9001 14.0436 13.4315 15.0314L9.77632 17.1438C9.41377 17.3583 8.95504 17.4582 8.5037 17.4582ZM8.5037 4.43971C8.24474 4.43971 7.98207 4.4915 7.8008 4.59879L4.17899 6.689C3.15424 7.3845 3.15424 7.3845 3.15424 8.47215V12.2716C3.15424 13.3592 3.15424 13.3592 4.21969 14.0769L7.81189 16.1449C8.17815 16.3594 8.84405 16.3594 9.214 16.1449L12.8358 14.0547C13.8605 13.3592 13.8605 13.3592 13.8605 12.2716V8.47585C13.8605 7.3882 13.8605 7.3882 12.7951 6.6705L9.1992 4.60249C9.02533 4.4952 8.76266 4.43971 8.5037 4.43971Z" fill="white" fill-opacity="0.85"/>
  <path d="M12.7142 6.45674C12.3997 6.45674 12.1408 6.19778 12.1408 5.88332V3.8708C12.1408 2.66107 11.6265 2.14684 10.4168 2.14684H6.5915C5.38177 2.14684 4.86754 2.66107 4.86754 3.8708V5.83153C4.86754 6.14598 4.60858 6.40495 4.29412 6.40495C3.97966 6.40495 3.7207 6.15339 3.7207 5.83153V3.8708C3.7207 2.01736 4.73806 1 6.5915 1H10.4205C12.2739 1 13.2913 2.01736 13.2913 3.8708V5.88332C13.2913 6.19408 13.0286 6.45674 12.7142 6.45674ZM9.75086 13.5376C9.59179 13.5376 9.42161 13.5079 9.25143 13.4377L8.50414 13.1491L7.75315 13.4488C7.3462 13.6079 6.93556 13.5708 6.6285 13.3489C6.32145 13.127 6.16236 12.7422 6.18457 12.3094L6.22895 11.5065L5.71473 10.885C5.43726 10.541 5.34848 10.1414 5.47056 9.77519C5.58525 9.41633 5.8997 9.13887 6.32145 9.03159L7.10203 8.83181L7.53857 8.1511C8.0047 7.41491 9.00726 7.41491 9.4771 8.1511L9.91364 8.83181L10.6942 9.03159C11.116 9.13887 11.4304 9.41263 11.5451 9.77519C11.6598 10.134 11.5673 10.541 11.2935 10.8776L10.7793 11.4992L10.8237 12.3019C10.8459 12.7384 10.6868 13.1121 10.3798 13.3415C10.1948 13.471 9.98023 13.5376 9.75086 13.5376ZM6.6063 10.1451L7.12053 10.7666C7.29811 10.9738 7.39799 11.3031 7.3795 11.5695L7.3351 12.3722L8.08609 12.0726C8.33766 11.9726 8.67432 11.9726 8.92958 12.0726L9.68057 12.3722L9.63619 11.5695C9.62138 11.3031 9.72127 10.9812 9.89515 10.7666L10.4094 10.1451L9.62879 9.94536C9.36982 9.87507 9.09236 9.67899 8.94808 9.45703L8.51154 8.78372L8.075 9.45703C7.93072 9.6864 7.65326 9.88617 7.39429 9.95646L6.6063 10.1451Z" fill="white" fill-opacity="0.85"/>
</svg>