<svg width="24" height="24" viewBox="0 0 24 24" fill="none" xmlns="http://www.w3.org/2000/svg">
<path d="M12 2C6.476 2 2 6.476 2 12C2 17.524 6.476 22 12 22C17.524 22 22 17.524 22 12C22 6.476 17.524 2 12 2ZM20.6187 11.3333H17.9773C17.8627 8.44667 17.02 5.896 15.7453 4.19333C18.4613 5.49867 20.3747 8.18 20.6187 11.3333ZM16.6333 11.3333H12.6667V3.432C14.8093 4.00267 16.4653 7.27733 16.6333 11.3333ZM11.3333 3.432V11.3333H7.36667C7.53467 7.27733 9.19067 4.00267 11.3333 3.432ZM8.256 4.19333C6.98 5.896 6.13867 8.44667 6.024 11.3333H3.38133C3.62533 8.18 5.53867 5.49867 8.256 4.19333ZM3.38133 12.6667H6.02267C6.13733 15.5533 6.98 18.104 8.25467 19.8067C5.53867 18.5013 3.62533 15.82 3.38133 12.6667ZM7.36667 12.6667H11.3333V20.568C9.19067 19.9973 7.53467 16.7227 7.36667 12.6667ZM12.6667 20.568V12.6667H16.6333C16.4653 16.7227 14.8093 19.9973 12.6667 20.568ZM15.744 19.8067C17.02 18.104 17.8613 15.5533 17.976 12.6667H20.6173C20.3747 15.82 18.4613 18.5013 15.744 19.8067Z" fill="white" fill-opacity="0.9"/>
</svg>
